<?xml version="1.0" encoding="utf-8"?>
<!-- Generator: Adobe Illustrator 25.2.1, SVG Export Plug-In . SVG Version: 6.00 Build 0)  -->
<svg version="1.1" id="Layer_1" xmlns="http://www.w3.org/2000/svg" xmlns:xlink="http://www.w3.org/1999/xlink" x="0px" y="0px"
	 viewBox="0 0 600 154.8" style="enable-background:new 0 0 600 154.8;" xml:space="preserve">
<style type="text/css">
	.st0{fill:#062E28;}
</style>
<g id="dragonfly">
	<path class="st0" d="M365.2,14.3c-0.2-0.7-0.6-1.2-1.1-1.7c-0.5-0.4-1.1-0.8-1.8-1.1c-1-0.5-2.1-0.8-3.2-1.1
		c-0.4,0-0.8-0.1-1.2-0.3c-0.3-0.1-0.7-0.1-1,0l-12.6,2.5l-9.9,1.9l-12.2,2.2c-3.6,0.6-7.1,1.2-10.7,1.5c-0.5,0-1,0-1.5,0
		c0,0-0.3,0-0.4,0c-0.1,0-0.4-1.1,0-1.6c0.4-0.6,0-0.4,0.4-0.5l0.3-0.2l2.7-1.9l1.2-0.9c0.4-0.2,0.5-0.7,0.4-1.1c0-0.1,0-0.2,0-0.3
		c-0.6-1.9-1.2-3.7-1.8-5.6c-0.1-0.2-0.1-0.5,0-0.7l-0.1-2.2c0-0.3,0-0.7,0-1c0-0.4-0.3-0.8-0.7-0.8c-0.4-0.1-0.8,0.1-0.9,0.5
		c0,0.1,0,0.2,0,0.3c-0.2,1-0.3,1.9-0.5,2.9c-0.1,0.3-0.1,0.7,0,1c0.6,1.8,1.2,3.5,1.8,5.3c0,0.3,0,0.4,0,0.6l-1.9,1.3
		c0,0,0,0-0.3,0v-1c0-0.4-0.1-0.7-0.4-0.9L308,9.6l-0.4-0.3l-3.7-2.1c-0.3-0.2-0.7-0.2-1,0c-2,1.1-3.9,2.5-5.6,4
		c-0.3,0.3-0.5,0.7-0.5,1.2c0,0.3,0,0.6,0,1c-0.1,0-0.2,0-0.3,0l-1.8-1.2c-0.4-0.2-0.4-0.2-0.2-0.6c0.6-1.8,1.2-3.5,1.7-5.2
		c0.1-0.3,0.1-0.7,0-1c0-0.6-0.2-1.3-0.3-1.9s0-0.8-0.2-1.2c-0.1-0.5-0.5-0.8-1-0.7c-0.5,0.1-0.8,0.5-0.7,0.9c0,0.1,0,0.2,0,0.3
		c0,0.8,0.3,1.6,0.4,2.4c0.1,0.4,0.1,0.7,0,1.1c-0.6,1.9-1.2,3.7-1.9,5.6c0,0.7,0,1,0.4,1.3c0.4,0.4,1.6,1.2,2.4,1.7
		c0.6,0.5,1.3,0.9,1.9,1.3c0,0.1,0,0.2,0,0.2c0.2,0.5,0.2,1.1,0,1.6c0,0.4,0,0.4-0.6,0.4c-1.1,0-2.2-0.1-3.3-0.2l-4.9-0.7
		c-2.5-0.4-4.9-0.8-7.5-1.2c-2.5-0.4-5.8-1-8.7-1.6l-9.2-1.8l-9.5-1.8c-1.3-0.3-2.6-0.4-3.7-0.8h-0.4c-1.4,0.3-2.7,0.7-4,1.2
		c-0.8,0.3-1.5,0.7-2.1,1.2c-1.3,1-1.6,2.9-0.7,4.2c0.4,0.6,0.8,1.1,1.3,1.5c0.7,0.7,1.5,1.3,2.3,1.8c1.9,1.2,3.9,2.3,5.9,3.2
		c6,2.6,12.3,4.6,18.7,6l1.3,0.3l0,0l-6.6,0.8c-3.2,0.4-6.3,0.9-9.4,1.5c-2.3,0.4-4.5,1-6.7,1.7c-1.1,0.4-2.2,0.8-3.2,1.5
		c-0.6,0.4-1.1,0.8-1.6,1.4c-0.6,0.8-0.8,1.8-0.5,2.7c0.2,0.7,0.7,1.4,1.2,1.9c0.5,0.6,1.1,1.1,1.8,1.5c1.4,0.9,2.8,1.8,4.3,2.5
		c0.1,0,0.3,0,0.4,0c2.7,0.5,5.5,0.9,8.2,1.3c2.7,0.4,6.2,0.7,9.3,0.8c3.7,0.2,7.5,0,11.2-0.4c2-0.3,4-0.7,6-1.2
		c2.7-0.7,5.2-1.9,7.5-3.4c2.2-1.4,3.9-3.4,5-5.8l0,0c0,0.1,0,0.2,0,0.4l1.2,3.3c0.1,0.3,0.1,0.6,0,0.8v9.9L300,77.7
		c0,2.7,0,5.4,0,8.1c-0.1,0.2-0.1,0.5,0,0.7c0.6,1,1.2,2.1,1.8,3.2c0.2,0.2,0.4,0.4,0.7,0.4c0.5,0.1,0.9-0.2,1.1-0.6
		c0.5-0.9,1-1.8,1.5-2.7c0.2-0.3,0.3-0.7,0.3-1V40.5c0-0.2,0-0.4,0-0.6c0.4-1,0.9-2.1,1.3-3.1c0-0.1,0-0.2,0-0.3v0.3
		c0.1,0.1,0.1,0.3,0.2,0.4c1,2,2.5,3.7,4.4,5c2.1,1.5,4.4,2.6,6.8,3.4c4.1,1.3,8.4,2,12.8,2.1c5.2,0.1,10.4-0.2,15.5-0.9
		c2.7-0.3,5.2-0.7,7.8-1.2c0.1,0,0.3,0,0.4,0c1.4-0.7,2.7-1.4,4-2.3c0.7-0.5,1.4-1,2.1-1.7c0.4-0.4,0.8-0.9,1.1-1.5
		c0.6-1.1,0.4-2.4-0.4-3.4c-0.4-0.5-0.9-0.9-1.4-1.2c-1-0.6-2-1.1-3.1-1.5c-3.1-1-6.2-1.8-9.4-2.2l-6.3-0.9l-5-0.9
		c-0.5,0-0.9-0.1-1.3-0.2h0.6c6.4-1.4,12.7-3.3,18.7-5.9c2.4-1,4.7-2.3,6.9-3.7c1-0.6,2-1.4,2.8-2.2c0.5-0.5,0.9-1.1,1.2-1.8
		C365.4,15.6,365.4,15,365.2,14.3z M299,12.2c1-1,2.2-1.8,3.4-2.5l1-0.6c0.1-0.1,0.3-0.1,0.4,0c1,0.6,2.1,1.2,3,1.8
		c0.6,0.5,1.2,1,1.8,1.5c0.3,0.2,0,0.6,0,0.8c0,0.3-0.3,0-0.5,0l-3.7-1.6c-0.4-0.2-0.9-0.2-1.3,0l-3.7,1.7c-0.1,0-0.3,0-0.4,0
		c0,0,0-0.3,0-0.4C298.8,12.6,298.9,12.4,299,12.2z M308.2,15.2c-0.2,0.7-0.6,1.2-1.2,1.7c-1.1,0.9-2.1,1.8-3.1,2.8h-0.3
		c0,0,0,0-0.3,0c-0.9-0.9-1.8-1.8-2.8-2.5c-0.6-0.6-1-1.3-1.2-2c0-0.2,0-0.3,0-0.3l1.5-0.6l2.5-1.1c0.2-0.1,0.5-0.1,0.7,0l3.7,1.7
		C308.3,14.9,308.3,14.9,308.2,15.2L308.2,15.2z M262.5,25.1c-3.9-1.2-7.7-2.7-11.4-4.4c-1.7-0.8-3.4-1.8-4.9-2.9
		c-0.6-0.4-1.1-0.9-1.6-1.5c-0.2-0.3-0.4-0.5-0.5-0.8c-0.2-0.4-0.1-0.9,0.2-1.2c0.3-0.3,0.6-0.6,0.9-0.7c1-0.5,2-0.9,3.1-1.2
		c1.2-0.4,2.5-0.4,3.7,0l11.9,2.3l9.6,1.8l9.3,1.7c2.3,0.4,4.6,0.8,7,1.1c2.4,0.3,4.5,0.7,6.8,0.8h0.8c-0.3,0.9-0.3,1.9,0,2.9
		c0,0.9,0.3,1.8,0.4,2.7c0.2,0.9,0,0.4-0.3,0.6c-0.6,0.3-1.3,0.5-2,0.6c-1.7,0.4-3.4,0.7-5.2,0.9l-5.7,0.7l-4.3,0.4
		c-0.7,0.1-1.4,0.1-2.1,0C272.8,28.1,267.6,26.9,262.5,25.1z M298.6,31.8c-0.1,0.3-0.1,0.5,0,0.8c0,1.2-0.3,2.3-0.8,3.4
		c-0.9,1.7-2.2,3.3-3.7,4.4c-1.9,1.4-4,2.4-6.2,3.1c-2.2,0.7-4.5,1.2-6.8,1.5c-2.9,0.4-5.8,0.6-8.7,0.5c-2.5,0-5-0.1-7.5-0.4
		c-4-0.4-8.1-1-12.1-1.7h-0.4c-1.4-0.7-2.8-1.5-4.1-2.4c-0.6-0.4-1.1-0.9-1.6-1.4c-0.2-0.2-0.3-0.5-0.5-0.8c-0.2-0.4-0.2-0.9,0-1.3
		c0.3-0.3,0.6-0.6,0.9-0.8c1-0.6,2-1.1,3.1-1.5c2.1-0.7,4.2-1.2,6.4-1.6c3.1-0.6,6.3-1,9.5-1.5c2.5-0.3,5.1-0.6,7.7-0.9l6.3-0.7
		l6.7-0.9c2.9-0.3,5.8-0.7,8.7-1.3c0.7-0.2,1.4-0.4,2.1-0.6c0.3,0,0.3,0,0.3,0l0.6,3.6C298.4,31.3,298.6,31.7,298.6,31.8z M300,29.8
		c-0.5-2.8-0.9-5.5-1.4-8.3c0-0.2,0-0.4,0-0.6l0.7-2.1c0-0.1,0-0.2,0-0.3l0.6,0.6l2.4,2.2c0.2,0.1,0.3,0.4,0.3,0.6v5.9
		c0.1,0.2,0.1,0.3,0,0.5l-2.4,1.8C300.1,30,300,30,300,29.8C300,29.8,300,29.8,300,29.8z M304.2,85.9c-0.2,0.4-0.4,0.8-0.7,1.2
		l-0.4,0.6l-1-1.8c0-0.1,0-0.3,0-0.4c0-1.9,0-3.9,0-5.9c0-0.3,0-0.3,0.3-0.3h1.4c0.4,0,0.4,0,0.4,0.4v4.7c0,0.4,0,0.8,0,1.3V85.9z
		 M302.9,51.2h1c0.4,0,0.4,0,0.4,0.3v4.6c0,0.3,0,0.3-0.4,0.3h-1.1c-0.3,0-0.3,0-0.3-0.3c0-1,0-1.9,0-2.9c0-1,0-1.1,0-1.6
		s0.1-0.6,0.4-0.6V51.2z M302.5,48.8c0-1.3,0-2.7,0-4v-0.9c0-0.2,0-0.3,0.3-0.3c0.3,0,0.7,0,1,0c0.2,0,0.3,0,0.3,0.3v4.8
		c0,0.4,0,0.4-0.3,0.4h-0.9C302.5,49.3,302.5,49.3,302.5,48.8z M302.7,57.9h1.2c0.2,0,0.3,0,0.3,0.3v4.7c0,0.2,0,0.3-0.3,0.3
		c-0.4,0-0.8,0-1.3,0c-0.3,0-0.3,0-0.3-0.3v-2.3l0,0c0-0.7,0-1.5,0-2.3S302.4,58,302.7,57.9L302.7,57.9z M302.7,64.9h1.3
		c0.2,0,0.3,0,0.3,0.3v4.6c0,0.2,0,0.3-0.3,0.3c-0.3,0-0.9,0-1.3,0s-0.4,0-0.3-0.4c0-1.1,0-2.2,0-3.3v-1.3c-0.1-0.2,0-0.2,0.2-0.2
		L302.7,64.9z M302.7,71.8h1.3c0.3,0,0.3,0,0.3,0.3v4.8c0,0.4,0,0.4-0.4,0.4h-1.4c-0.2,0-0.3,0-0.3-0.3c0-0.3,0-1.2,0-1.9s0-2,0-3
		c-0.1-0.2-0.1-0.2,0.3-0.3L302.7,71.8z M305.4,36.6l-1.2,2.9c0,0.2,0,0.4,0,0.6v1.5c0,0.4,0,0.4-0.4,0.4H303c-0.4,0-0.4,0-0.4-0.4
		v-1.5c0-0.2,0-0.5,0-0.7c-0.4-1-0.8-2.1-1.2-3.3h4.3C305.7,36.4,305.6,36.5,305.4,36.6z M306.2,34.1c0,0.2-0.2,0.3-0.4,0.3h-4.5
		c-0.5,0-0.5,0-0.6-0.5c-0.1-0.5,0-1.1-0.3-1.6c-0.1-0.1-0.1-0.3,0-0.4l2.8-2.1c0.1-0.1,0.2-0.1,0.3,0l2.8,2.2c0,0,0,0.2,0,0.4
		s0,1.1,0,1.7H306.2z M307.2,28.9c0,0.4,0,0.9-0.3,1.3c-0.1,0-0.2,0-0.2,0l-2.1-1.7c-0.2-0.1-0.2-0.3-0.2-0.4v-6.4
		c-0.1-0.1-0.1-0.3,0-0.4l3.1-2.8l0,0c0,0,0,0,0,0.3c0,0.3,0.2,0.8,0.3,1.2c0.2,0.7,0.2,1.5,0,2.2c0.3,2.2-0.1,4.5-0.5,6.7H307.2z
		 M340.6,32.6c4,0.4,8,1.1,11.9,1.9c1.8,0.4,3.7,0.9,5.4,1.6c0.7,0.3,1.3,0.6,1.9,1c0.3,0.2,0.6,0.5,0.9,0.7c0.4,0.4,0.4,1.1,0,1.5
		c-0.2,0.4-0.5,0.8-0.8,1c-0.5,0.5-0.9,0.9-1.5,1.2c-1.2,0.8-2.4,1.5-3.7,2.2c-0.5,0.2-1,0.3-1.6,0.4c-2.2,0.4-4.5,0.7-6.8,1
		c-1.6,0-3.1,0.4-4.7,0.5c-3.1,0.3-6.2,0.4-9.3,0.3c-3.8,0-7.5-0.5-11.2-1.4c-2.6-0.6-5.2-1.7-7.5-3.1c-1.4-0.9-2.7-2.1-3.7-3.4
		c-0.8-1.3-1.3-2.8-1.4-4.3c-0.1-0.7-0.1-1.5,0-2.2c0.2-1.1,0.4-2.2,0.6-3.3c2.4,0.8,4.9,1.3,7.5,1.5c2.5,0.4,5.1,0.6,7.5,0.9
		l8.6,0.9c2.8,0.2,5.3,0.5,8,0.8L340.6,32.6z M363.3,15.7c-0.1,0.3-0.3,0.7-0.6,0.9c-0.5,0.6-1.1,1.2-1.8,1.6
		c-1.5,1.1-3.2,2.1-4.9,2.9c-3.8,1.8-7.8,3.4-11.9,4.6c-3.5,1.1-7.1,2.1-10.7,2.8c-1.9,0.4-3.9,0.6-5.9,0.7c-0.9,0-1.8-0.1-2.8-0.2
		l-4.5-0.7c-3.1-0.3-6.1-0.8-9.1-1.4c-0.5-0.1-1-0.3-1.4-0.4c-0.4,0-0.4,0-0.3-0.6c0-1,0.3-2,0.5-3c0.1-0.6,0.2-1.2,0.4-1.8
		c0.1-0.2,0.1-0.4,0-0.5c0-0.3,0-0.5,0-0.8l0,0c2.3-0.1,4.7-0.3,7-0.7c3.7-0.5,7.5-1.2,11-1.8l10.2-1.9l10.8-2.1l7.2-1.4
		c0.3,0,0.6,0,1,0c1.3,0.2,2.5,0.6,3.7,1c0.5,0.2,1.1,0.5,1.6,0.8l0.6,0.5c0.2,0.4,0.2,0.9,0,1.3L363.3,15.7z"/>
</g>
<path class="st0" d="M3,152.3v-24.5h4.7c2.5-0.1,5,0.1,7.5,0.5c1.4,0.3,2.6,0.9,3.7,1.8c1.4,1.1,2.5,2.5,3.2,4.1
	c1.4,3.7,1.4,7.9,0,11.6c-0.7,1.6-1.8,3-3.2,4.1c-1.1,0.8-2.4,1.4-3.7,1.8c-2.1,0.4-4.2,0.6-6.4,0.5H3z M6,149.7h1.9
	c2.1,0.1,4.2-0.1,6.2-0.4c1.1-0.2,2-0.7,2.9-1.3c1-0.9,1.8-2,2.3-3.3c1-2.9,1-6.1,0-9c-0.5-1.2-1.3-2.4-2.3-3.2
	c-0.8-0.7-1.8-1.2-2.9-1.4c-2.1-0.3-4.1-0.5-6.2-0.4H6V149.7z"/>
<path class="st0" d="M40,152.3v-24.5h2.9v24.5H40z"/>
<path class="st0" d="M60.9,152.3v-24.5h2.9v21.7h9.2v2.8H60.9z"/>
<path class="st0" d="M88.6,152.3v-24.5h2.9v9.4h13v-9.4h3v24.5h-3V140H91.6v12.3L88.6,152.3z"/>
<path class="st0" d="M133.2,126.8l11.2,25.5h-3.1l-3.2-7.5h-9.6l-3.2,7.5h-3.1L133.2,126.8z M133.2,133.3l-3.9,9h7.8L133.2,133.3z"
	/>
<path class="st0" d="M170.4,153.2l-7.5-17.6l-3.3,16.6h-2.8l5-25.5l8.6,20.3l8.6-20.3l4.9,25.5H181l-3.1-16.6L170.4,153.2z"/>
<path class="st0" d="M222,152.3v-24.5h2.9v9.4h13.2v-9.4h3v24.5h-3V140h-13.2v12.3L222,152.3z"/>
<path class="st0" d="M266.6,126.8l11.2,25.5h-3.1l-3.2-7.5h-9.6l-3.2,7.5h-3.1L266.6,126.8z M266.6,133.3l-3.7,9h7.8L266.6,133.3z"
	/>
<path class="st0" d="M292.4,152.3v-24.5h2.9v21.7h9.2v2.8H292.4z"/>
<path class="st0" d="M320,152.3v-24.5h2.9v21.7h9.2v2.8H320z"/>
<path class="st0" d="M370,152.3v-24.5h5.8c1.3,0,2.5,0.1,3.7,0.3c0.7,0.2,1.4,0.5,2,1c0.8,0.6,1.4,1.4,1.7,2.3
	c0.4,1,0.6,2.1,0.6,3.1c0.1,1.7-0.5,3.4-1.7,4.6c-1.4,1.1-3.1,1.7-4.9,1.6h-0.8l9.3,11.7H382l-8.9-11.7h-0.4v11.7H370z M372.7,130.3
	v8.2h2.2c1.6,0.2,3.2-0.2,4.6-0.9c0.8-0.8,1.3-1.9,1.2-3.1c0.1-1.2-0.3-2.4-1.2-3.3c-1.4-0.8-3-1.1-4.5-0.9L372.7,130.3z"/>
<path class="st0" d="M400.4,152.3v-24.5h12.9v2.7h-10v7h10v2.7h-10v9.5h10v2.7L400.4,152.3z"/>
<path class="st0" d="M434.6,152.3v-21.7h-6.9v-2.8h16.7v2.8h-6.9v21.7L434.6,152.3z"/>
<path class="st0" d="M459.8,152.3v-24.5h5.8c1.3,0,2.5,0.1,3.7,0.3c0.7,0.2,1.4,0.5,2,1c0.8,0.6,1.4,1.4,1.7,2.3
	c0.4,1,0.6,2.1,0.6,3.1c0.1,1.7-0.5,3.4-1.7,4.6c-1.4,1.1-3.1,1.7-4.9,1.6h-0.5l9.3,11.7h-3.7l-8.9-11.7h-0.4v11.7H459.8z
	 M462.7,130.3v8.2h2.2c1.6,0.2,3.2-0.2,4.6-0.9c0.8-0.8,1.3-1.9,1.2-3.1c0.1-1.2-0.3-2.4-1.2-3.3c-1.4-0.8-3-1.1-4.5-0.9
	L462.7,130.3z"/>
<path class="st0" d="M490.3,152.3v-24.5h12.9v2.7h-10v7h10v2.7h-10v9.5h10v2.7L490.3,152.3z"/>
<path class="st0" d="M527.9,126.8l11.2,25.5H536l-3.2-7.5h-9.6l-3.2,7.5H517L527.9,126.8z M527.9,133.3l-3.7,9h7.8L527.9,133.3z"/>
<path class="st0" d="M558,152.3v-21.7H551v-2.8h16.7v2.8h-6.9v21.7L558,152.3z"/>
<path class="st0" d="M592,138.7c1.5,0.5,2.8,1.5,3.7,2.7c0.8,1.2,1.2,2.5,1.2,4c0.1,2-0.7,4-2.1,5.5c-3,2.5-7.3,2.7-10.5,0.6
	c-1.3-1.1-2.3-2.6-2.7-4.2l2.7-1.3c0.2,1.3,0.8,2.5,1.8,3.4c0.8,0.8,2,1.2,3.1,1.2c1.3,0.1,2.6-0.4,3.5-1.3c0.9-0.8,1.4-2,1.4-3.3
	c0-1-0.3-2-1-2.8c-0.8-0.9-1.7-1.6-2.8-2.1l-3-1.3c-1.5-0.5-2.8-1.4-3.7-2.6c-0.8-1.1-1.2-2.4-1.2-3.7c0-1.7,0.7-3.2,1.9-4.3
	c1.4-1.1,3.1-1.8,4.9-1.7c1.3,0,2.6,0.3,3.7,0.9c1.1,0.7,1.9,1.6,2.5,2.8l-2.4,1.5c-0.4-0.8-1.1-1.6-1.8-2.1
	c-0.7-0.5-1.5-0.7-2.3-0.7c-1,0-2,0.3-2.7,1c-0.7,0.7-1.1,1.6-1,2.5c0,0.8,0.3,1.6,0.8,2.3c0.7,0.7,1.6,1.3,2.5,1.7L592,138.7z"/>
</svg>
